<?xml version="1.0" encoding="UTF-8"?>
<svg id="Layer_1" data-name="Layer 1" xmlns="http://www.w3.org/2000/svg" viewBox="0 0 198.3 195.89">
  <defs>
    <style>
      .cls-1 {
        fill: #f5e6d3;
        stroke-width: 0px;
      }
    </style>
  </defs>
  <path class="cls-1" d="M137.23,15.35c-3.52,4.39-6.41,8.18-9.49,11.81-18.39,21.66-40.54,38.45-66.44,50.08-11.86,5.32-24.27,7.37-36.73,1.62-16.53-7.62-22.62-22.86-15.61-39.8C15.83,22.46,28.86,12.22,45.34,6.31c23.94-8.58,47.97-8.5,71.79.74,6.47,2.51,12.83,5.29,20.11,8.3Z"/>
  <path class="cls-1" d="M0,102.06c8.96,1.03,17.03,1.76,25.03,2.91,23.18,3.34,44.79,11.4,65.06,22.91,5.56,3.16,10.63,7.46,15.23,11.96,10.73,10.51,14.22,23.37,8.8,37.47-5.32,13.85-17.65,18.02-31.06,18.53-17.48.67-32.2-6.52-45.43-17.59C15.71,159.92,5.25,135.75,1.03,108.25c-.25-1.61-.53-3.22-1.03-6.19Z"/>
  <path class="cls-1" d="M138.29,175.76c-2.72-9.45-5.43-17.78-7.49-26.27-5.78-23.73-6.74-47.78-2.56-71.8,1.25-7.18,4.17-14.55,8.12-20.69,13.83-21.52,41.74-20.36,54.4,1.79,8.8,15.4,9.23,31.69,4.78,48.35-6.69,25.05-21.35,44.42-42.7,58.89-4.39,2.98-8.82,5.9-14.54,9.74Z"/>
</svg>
